<?xml version="1.0" standalone="no"?>
<!DOCTYPE svg PUBLIC "-//W3C//DTD SVG 20010904//EN"
 "http://www.w3.org/TR/2001/REC-SVG-20010904/DTD/svg10.dtd">
<svg version="1.0" xmlns="http://www.w3.org/2000/svg"
 width="500.000000pt" height="500.000000pt" viewBox="0 0 500.000000 500.000000"
 preserveAspectRatio="xMidYMid meet">
<metadata>
Created by potrace 1.14, written by Peter Selinger 2001-2017
</metadata>
<g transform="translate(0.000000,500.000000) scale(0.100000,-0.100000)"
fill="#000000" stroke="none">
<path d="M0 2500 l0 -2500 2500 0 2500 0 0 2500 0 2500 -2500 0 -2500 0 0
-2500z m3244 1021 c43 -11 111 -36 150 -55 89 -43 200 -132 192 -153 -4 -8
-45 -69 -93 -134 -59 -82 -93 -119 -106 -119 -11 0 -40 18 -64 41 -94 87 -251
135 -413 126 -210 -11 -314 -104 -281 -253 26 -114 95 -151 406 -214 83 -17
179 -40 215 -52 279 -90 414 -266 412 -538 -1 -127 -14 -190 -62 -286 -71
-144 -214 -247 -405 -291 -120 -27 -378 -25 -498 5 -220 55 -383 153 -477 288
l-29 41 102 126 c68 85 109 126 122 127 13 0 35 -19 60 -51 137 -174 403 -267
610 -214 121 31 187 109 188 222 0 75 -16 122 -56 160 -52 50 -107 73 -279
114 -243 58 -306 77 -383 114 -192 93 -288 232 -302 437 -21 304 165 517 504
578 26 5 129 7 228 6 144 -3 196 -8 259 -25z m-1384 -956 l0 -965 -190 0 -190
0 0 965 0 965 190 0 190 0 0 -965z"/>
</g>
</svg>
