<?xml version="1.0" standalone="no"?>
<!DOCTYPE svg PUBLIC "-//W3C//DTD SVG 20010904//EN"
 "http://www.w3.org/TR/2001/REC-SVG-20010904/DTD/svg10.dtd">
<svg version="1.0" xmlns="http://www.w3.org/2000/svg"
 width="500.000000pt" height="500.000000pt" viewBox="0 0 500.000000 500.000000"
 preserveAspectRatio="xMidYMid meet">
<metadata>
Created by potrace 1.14, written by Peter Selinger 2001-2017
</metadata>
<g transform="translate(0.000000,500.000000) scale(0.100000,-0.100000)"
fill="#000000" stroke="none">
<path d="M2477 4993 c-2 -1 -46 -3 -98 -4 -51 -1 -139 -8 -194 -16 -55 -7
-107 -14 -115 -14 -31 -2 -268 -60 -345 -85 -239 -78 -532 -231 -720 -376
-527 -406 -848 -931 -966 -1583 -19 -102 -22 -161 -24 -390 -1 -148 2 -292 7
-320 4 -27 10 -68 14 -90 91 -611 438 -1205 920 -1576 156 -120 247 -177 429
-269 206 -105 467 -194 655 -225 19 -3 42 -8 50 -10 18 -5 153 -17 235 -21
161 -8 382 -3 495 11 25 3 63 7 85 10 192 23 476 117 707 232 136 68 379 220
438 275 14 13 52 46 85 73 232 194 456 485 600 779 62 127 122 272 129 311 1
6 5 15 8 21 18 29 81 309 104 464 9 60 11 543 3 600 -26 172 -33 207 -65 335
-131 519 -431 982 -856 1322 -212 169 -481 320 -718 402 -36 13 -74 27 -85 31
-30 13 -218 60 -283 71 -112 20 -260 36 -343 38 -46 1 -99 3 -117 5 -18 1 -34
1 -35 -1z m470 -1439 c-3 -3 -12 -4 -19 -1 -8 3 -5 6 6 6 11 1 17 -2 13 -5z
m-119 -11 c-10 -2 -26 -2 -35 0 -10 3 -2 5 17 5 19 0 27 -2 18 -5z m290 0
c-10 -2 -26 -2 -35 0 -10 3 -2 5 17 5 19 0 27 -2 18 -5z m-365 -10 c-7 -2 -19
-2 -25 0 -7 3 -2 5 12 5 14 0 19 -2 13 -5z m430 0 c-7 -2 -19 -2 -25 0 -7 3
-2 5 12 5 14 0 19 -2 13 -5z m-1415 -10 c-54 -2 -142 -2 -195 0 -54 1 -10 3
97 3 107 0 151 -2 98 -3z m887 -13 c-32 -11 -61 -18 -63 -16 -5 6 80 34 103
35 11 0 -7 -9 -40 -19z m625 5 c46 -18 28 -18 -35 0 -29 8 -39 14 -25 14 14 0
41 -7 60 -14z m112 -45 c71 -35 143 -86 178 -127 24 -27 23 -27 -10 3 -59 52
-102 81 -175 118 -39 19 -66 35 -62 36 4 0 36 -14 69 -30z m-862 -10 c-75 -38
-155 -112 -202 -185 -43 -68 -50 -70 -13 -3 29 51 61 87 125 139 46 37 117 78
135 78 6 0 -15 -13 -45 -29z m1028 -196 c-18 -25 -37 -48 -43 -52 -5 -3 3 12
19 34 45 60 48 64 53 64 2 0 -11 -21 -29 -46z m-685 -41 c-7 -2 -21 -2 -30 0
-10 3 -4 5 12 5 17 0 24 -2 18 -5z m185 0 c-10 -2 -26 -2 -35 0 -10 3 -2 5 17
5 19 0 27 -2 18 -5z m-241 -9 c-3 -3 -12 -4 -19 -1 -8 3 -5 6 6 6 11 1 17 -2
13 -5z m290 0 c-3 -3 -12 -4 -19 -1 -8 3 -5 6 6 6 11 1 17 -2 13 -5z m-826
-35 c-5 -13 -10 -19 -10 -12 -1 15 10 45 15 40 3 -2 0 -15 -5 -28z m496 25
c-3 -3 -12 -4 -19 -1 -8 3 -5 6 6 6 11 1 17 -2 13 -5z m403 -10 c23 -9 39 -18
37 -20 -2 -2 -25 5 -53 16 -27 10 -43 19 -37 20 7 0 31 -7 53 -16z m-455 -10
c-56 -42 -85 -77 -93 -117 -6 -25 -10 -33 -11 -19 -2 39 30 92 72 123 22 16
43 29 46 29 3 0 -3 -7 -14 -16z m778 4 c-5 -7 -31 -41 -57 -75 -26 -35 -53
-63 -60 -63 -7 0 -23 12 -37 26 -13 14 -45 40 -71 57 -27 16 -46 32 -44 35 6
6 87 -51 115 -82 14 -14 30 -26 37 -26 7 0 35 32 63 70 28 39 54 70 57 70 4 0
2 -6 -3 -12z m-1236 -60 c-3 -8 -6 -5 -6 6 -1 11 2 17 5 13 3 -3 4 -12 1 -19z
m-10 -80 c-2 -13 -4 -3 -4 22 0 25 2 35 4 23 2 -13 2 -33 0 -45z m385 -103
c22 -59 66 -94 163 -129 22 -8 35 -15 28 -15 -7 -1 -36 8 -66 19 -87 33 -149
108 -146 177 2 27 2 27 6 3 2 -14 9 -38 15 -55z m-376 -93 c-7 -6 -23 102 -17
113 3 6 9 -17 13 -49 4 -33 6 -61 4 -64z m35 -79 c10 -24 16 -43 13 -43 -7 0
-44 89 -43 103 0 7 3 5 6 -3 4 -8 14 -34 24 -57z m576 21 c-3 -3 -12 -4 -19
-1 -8 3 -5 6 6 6 11 1 17 -2 13 -5z m46 -11 c-7 -2 -19 -2 -25 0 -7 3 -2 5 12
5 14 0 19 -2 13 -5z m77 -13 c20 -6 21 -8 5 -8 -11 0 -31 4 -45 8 -20 6 -21 8
-5 8 11 0 31 -4 45 -8z m63 -17 c-7 -2 -19 -2 -25 0 -7 3 -2 5 12 5 14 0 19
-2 13 -5z m82 -13 c27 -7 27 -8 5 -8 -14 0 -36 4 -50 8 -20 6 -21 8 -5 8 11 0
34 -4 50 -8z m80 -20 c13 -5 14 -9 5 -9 -8 0 -24 4 -35 9 -13 5 -14 9 -5 9 8
0 24 -4 35 -9z m-750 -142 c36 -23 63 -44 60 -46 -13 -13 -160 108 -197 163
-12 17 0 6 26 -22 26 -29 76 -71 111 -95z m805 122 c8 -5 11 -10 5 -10 -5 0
-17 5 -25 10 -8 5 -10 10 -5 10 6 0 17 -5 25 -10z m90 -35 c28 -14 50 -28 50
-30 0 -3 -21 5 -47 18 -27 14 -55 27 -63 30 -10 3 -11 6 -2 6 7 1 35 -10 62
-24z m129 -83 c43 -35 131 -158 131 -184 0 -7 -14 12 -31 42 -31 59 -81 116
-139 163 -19 16 -28 25 -20 21 8 -4 35 -23 59 -42z m-909 -67 c14 -8 21 -14
15 -14 -5 0 -21 6 -35 14 -14 8 -20 14 -15 14 6 0 21 -6 35 -14z m95 -35 c13
-6 15 -9 5 -9 -8 0 -22 4 -30 9 -18 12 -2 12 25 0z m70 -20 c13 -5 14 -9 5 -9
-8 0 -24 4 -35 9 -13 5 -14 9 -5 9 8 0 24 -4 35 -9z m69 -19 c4 -5 -3 -7 -14
-4 -23 6 -26 13 -6 13 8 0 17 -4 20 -9z m106 -21 c20 -6 21 -8 5 -8 -11 0 -31
4 -45 8 -20 6 -21 8 -5 8 11 0 31 -4 45 -8z m57 -16 c-3 -3 -12 -4 -19 -1 -8
3 -5 6 6 6 11 1 17 -2 13 -5z m129 -36 c70 -25 137 -86 152 -136 37 -124 -8
-245 -111 -297 -28 -14 -60 -25 -71 -24 -12 0 -1 7 24 14 99 31 160 116 160
222 -1 115 -54 177 -195 226 -44 15 -64 24 -45 21 19 -4 58 -15 86 -26z m539
-65 l4 -48 -9 44 c-5 23 -12 53 -15 65 -5 18 -4 18 5 4 5 -9 12 -38 15 -65z
m12 -175 c-2 -24 -4 -5 -4 42 0 47 2 66 4 43 2 -24 2 -62 0 -85z m-1221 40
l19 -23 -25 20 c-14 11 -27 21 -29 22 -2 2 0 3 6 3 5 0 18 -10 29 -22z m-52 0
c-4 -7 -50 -63 -101 -125 -87 -104 -93 -114 -82 -135 11 -21 11 -22 -4 -9 -10
7 -17 18 -17 23 0 8 54 81 85 114 6 6 35 41 65 78 50 62 71 83 54 54z m229
-167 c20 -12 37 -25 37 -27 0 -8 -74 39 -106 67 -16 14 -45 43 -64 65 -19 21
-6 12 30 -22 36 -33 82 -70 103 -83z m1038 47 c-3 -21 -6 -26 -9 -15 -3 17 3
47 11 47 2 0 1 -15 -2 -32z m-21 -85 c-39 -121 -123 -225 -238 -292 -68 -40
-176 -82 -209 -80 -10 0 10 9 45 18 195 56 343 192 393 359 7 23 14 40 17 38
2 -3 -1 -22 -8 -43z m-919 -13 c24 -11 37 -19 29 -19 -15 0 -91 38 -79 39 4 0
26 -9 50 -20z m122 -37 c-7 -2 -21 -2 -30 0 -10 3 -4 5 12 5 17 0 24 -2 18 -5z
m80 -10 c-13 -2 -33 -2 -45 0 -13 2 -3 4 22 4 25 0 35 -2 23 -4z m120 0 c-13
-2 -35 -2 -50 0 -16 2 -5 4 22 4 28 0 40 -2 28 -4z m-598 -205 c95 -49 170
-77 273 -98 48 -10 74 -19 57 -19 -40 -1 -154 29 -240 64 -114 46 -232 130
-300 215 -11 14 16 -9 60 -50 46 -44 109 -90 150 -112z m690 -119 c-22 -4
-105 -7 -185 -6 l-145 1 155 6 c234 9 220 9 175 -1z"/>
</g>
</svg>
